<?xml version="1.0" standalone="no"?>
<!DOCTYPE svg PUBLIC "-//W3C//DTD SVG 20010904//EN"
 "http://www.w3.org/TR/2001/REC-SVG-20010904/DTD/svg10.dtd">
<svg version="1.0" xmlns="http://www.w3.org/2000/svg"
 width="700.000000pt" height="700.000000pt" viewBox="0 0 700.000000 700.000000"
 preserveAspectRatio="xMidYMid meet">
<metadata>
Created by potrace 1.14, written by Peter Selinger 2001-2017
</metadata>
<g transform="translate(0.000000,700.000000) scale(0.100000,-0.100000)"
fill="#000000" stroke="none">
<path d="M3505 6151 c-2 -5 -19 -16 -37 -25 -18 -9 -60 -33 -93 -54 -91 -57
-665 -408 -979 -598 l-279 -169 -149 -180 c-83 -99 -160 -191 -172 -205 -11
-14 -39 -48 -62 -75 -62 -77 -380 -462 -442 -535 -81 -98 -79 -95 -202 -245
-136 -165 -307 -372 -361 -436 -21 -25 -53 -64 -72 -88 l-34 -43 156 -197 c86
-108 244 -306 351 -441 107 -135 200 -252 207 -260 7 -8 51 -64 99 -125 47
-60 93 -119 103 -130 9 -11 68 -85 131 -165 380 -479 402 -505 443 -529 23
-13 94 -54 157 -91 244 -144 688 -405 760 -447 41 -24 82 -48 90 -53 254 -149
359 -210 363 -210 5 0 634 356 1259 712 l216 123 153 195 c153 196 329 419
424 540 29 36 128 162 220 280 299 381 373 474 499 635 84 105 116 150 116
158 0 6 -17 30 -37 55 -21 25 -93 113 -161 196 -68 83 -131 160 -140 171 -9
11 -33 40 -52 65 -19 25 -37 47 -40 50 -3 3 -75 91 -160 195 -85 105 -162 199
-172 210 -9 11 -103 126 -208 255 -106 129 -262 322 -348 428 l-157 192 -250
154 c-304 186 -467 286 -503 307 -15 9 -122 74 -237 146 -116 71 -217 132
-225 136 -8 4 -50 29 -92 56 -43 28 -80 46 -83 42z m299 -573 c163 -205 307
-386 321 -403 84 -104 137 -172 145 -185 8 -14 -64 -64 -330 -230 -22 -14
-123 -78 -224 -142 -100 -65 -190 -120 -198 -123 -10 -4 -163 80 -409 226
-217 127 -395 233 -396 233 -1 1 28 40 65 87 50 62 451 567 579 729 6 8 39 49
72 90 34 41 61 78 61 83 0 25 49 -31 314 -365z m529 -67 c219 -134 396 -245
395 -246 -10 -9 -323 -207 -333 -211 -8 -4 -75 73 -175 198 -88 112 -166 210
-173 218 -90 111 -317 401 -317 405 0 3 46 -23 103 -58 56 -35 281 -173 500
-306z m-1095 307 c-19 -24 -113 -142 -209 -263 -95 -121 -178 -225 -184 -231
-5 -7 -55 -69 -110 -139 -55 -71 -107 -137 -115 -148 -15 -18 -22 -15 -199 89
-123 72 -178 110 -169 115 7 4 238 145 513 313 275 168 502 306 504 306 2 0
-12 -19 -31 -42z m1957 -1069 c193 -237 360 -443 372 -457 133 -164 187 -230
201 -247 81 -97 274 -337 266 -333 -5 3 -118 69 -250 146 -133 78 -257 150
-275 160 -346 197 -588 343 -597 362 -1 3 -103 131 -225 285 -217 272 -223
280 -203 295 56 41 342 220 351 219 6 0 168 -194 360 -430z m-2858 284 c101
-59 183 -110 183 -114 0 -3 -92 -122 -205 -264 -113 -141 -213 -268 -223 -281
-13 -18 -403 -250 -1112 -662 l-45 -26 45 53 c25 30 103 124 173 210 70 86
145 176 166 201 21 25 75 90 120 145 45 55 99 120 120 145 51 60 208 251 411
498 91 110 169 201 174 201 6 1 92 -47 193 -106z m2268 -461 c189 -239 215
-276 203 -290 -7 -9 -18 -23 -25 -32 -42 -54 -199 -251 -222 -280 -16 -19 -91
-114 -167 -210 l-139 -176 -50 60 c-28 33 -106 130 -175 215 -69 86 -192 238
-273 338 -80 100 -148 186 -149 192 -2 6 166 119 372 251 352 225 376 238 392
222 9 -9 114 -140 233 -290z m-1575 53 c184 -108 345 -204 358 -211 22 -15 21
-16 -125 -197 -81 -100 -155 -191 -165 -202 -9 -11 -87 -106 -172 -212 -86
-106 -160 -194 -164 -197 -5 -3 -26 18 -48 47 -21 28 -47 61 -56 72 -134 160
-459 579 -455 588 4 10 81 109 112 143 5 7 79 100 164 208 l154 196 31 -19
c17 -10 182 -108 366 -216z m624 -497 c82 -101 162 -201 180 -222 17 -22 47
-59 66 -82 41 -48 53 -63 100 -124 19 -25 37 -47 40 -50 15 -13 130 -159 130
-165 0 -6 -205 -271 -220 -285 -3 -3 -44 -54 -92 -115 -49 -60 -146 -183 -217
-272 l-129 -162 -30 37 c-31 38 -144 180 -197 247 -16 21 -111 140 -210 264
-99 124 -193 243 -209 263 l-28 38 55 67 c190 234 403 496 495 610 59 73 110
133 113 133 3 0 72 -82 153 -182z m-1260 -270 c158 -198 284 -364 279 -367 -4
-3 -51 -60 -104 -126 -53 -66 -142 -176 -198 -245 -56 -69 -137 -168 -179
-220 -121 -150 -103 -139 -162 -102 -28 18 -53 32 -55 32 -2 0 -398 234 -455
269 -15 10 -235 141 -291 173 -16 10 -91 55 -166 100 -76 46 -151 90 -168 99
-16 9 -29 20 -29 24 2 7 296 184 449 270 22 13 207 120 410 239 203 119 372
216 375 216 4 0 136 -163 294 -362z m2752 229 c712 -416 922 -537 937 -543 9
-3 17 -10 17 -14 0 -6 -90 -61 -222 -135 -10 -5 -217 -124 -461 -264 -243
-140 -465 -267 -494 -283 l-52 -28 -263 325 c-145 178 -264 331 -266 338 -1 7
30 54 70 104 40 49 83 103 96 119 76 97 407 513 408 514 1 0 105 -60 230 -133z
m-2219 -899 c93 -117 240 -302 326 -410 86 -108 157 -201 157 -205 0 -5 -24
-23 -52 -40 -77 -46 -496 -287 -553 -318 -28 -15 -54 -31 -60 -35 -5 -3 -31
-19 -57 -33 l-47 -27 -181 227 c-100 126 -198 248 -218 272 -65 78 -64 72 -27
116 18 22 99 121 180 220 80 99 154 189 163 200 9 11 58 71 107 133 50 61 91
112 91 112 1 0 78 -96 171 -212z m3204 195 c-5 -10 -155 -203 -333 -429 -178
-226 -333 -424 -345 -440 -12 -16 -31 -40 -42 -54 -129 -162 -260 -329 -370
-469 l-134 -172 -24 17 c-14 8 -50 30 -82 46 -31 17 -60 34 -66 38 -5 4 -28
18 -50 30 -158 88 -235 134 -235 142 0 7 45 72 97 138 6 8 86 114 177 236
l165 220 158 91 c636 363 1059 607 1068 614 16 15 26 10 16 -8z m-1819 -68
c145 -170 458 -571 454 -582 -3 -7 -101 -141 -217 -296 -117 -155 -213 -283
-213 -284 -1 -1 -112 61 -246 138 -135 77 -270 154 -300 171 -55 31 -171 99
-179 105 -2 1 18 31 45 65 63 82 399 505 428 540 12 15 56 69 96 121 l75 94
20 -26 c11 -14 28 -35 37 -46z m-3147 -147 c88 -52 315 -187 505 -300 190
-113 360 -213 377 -223 19 -11 122 -131 240 -279 114 -144 216 -270 225 -280
10 -11 18 -22 18 -26 0 -3 -21 -17 -47 -31 -27 -14 -119 -68 -207 -118 -131
-77 -161 -91 -171 -79 -7 7 -93 114 -191 238 -98 124 -264 333 -369 465 -105
132 -267 337 -360 455 -93 118 -172 217 -175 220 -3 3 -21 25 -40 50 l-35 45
35 -21 c19 -12 107 -64 195 -116z m2565 -813 c113 -65 221 -127 240 -138 19
-11 82 -47 140 -80 58 -33 115 -66 127 -72 22 -12 19 -17 -103 -181 -69 -93
-131 -176 -137 -184 -7 -8 -119 -158 -250 -333 -131 -175 -242 -317 -247 -315
-4 2 -171 208 -371 458 -200 250 -369 461 -376 468 -40 41 -38 44 99 122 72
41 147 84 167 96 243 142 495 283 500 280 3 -2 98 -57 211 -121z m1061 -612
c5 -5 -67 -51 -159 -103 -92 -52 -241 -137 -332 -189 -91 -52 -189 -107 -218
-123 -29 -16 -122 -69 -207 -117 -85 -49 -152 -83 -148 -77 8 14 116 159 123
166 3 3 70 93 150 200 80 107 147 197 150 200 3 3 37 48 75 100 38 52 86 116
107 142 l38 46 207 -119 c113 -65 210 -122 214 -126z m-2001 -5 c96 -121 182
-228 190 -238 8 -10 29 -35 45 -56 17 -21 85 -107 152 -191 139 -173 144 -171
-86 -34 -81 48 -309 183 -509 300 -199 118 -361 216 -358 218 7 7 380 222 386
222 3 0 84 -99 180 -221z"/>
</g>
</svg>
